<svg width="26" height="11" viewBox="0 0 26 11" fill="none" xmlns="http://www.w3.org/2000/svg">
<path d="M11.9964 9.25569L11.9933 9.25358L1.67942 2.23068C1.49961 2.10824 1.49983 2.04055 1.49999 1.99268L1.5 1.98855L1.49999 1.98442C1.49983 1.93655 1.49961 1.86886 1.67942 1.74642C1.88391 1.60718 2.19607 1.5 2.6861 1.5C3.17613 1.5 3.48829 1.60718 3.69278 1.74642L12.4372 7.70062L13 8.08386L13.5628 7.70062L22.3072 1.74642C22.5117 1.60718 22.8239 1.5 23.3139 1.5C23.8039 1.5 24.1161 1.60718 24.3206 1.74642C24.5004 1.86885 24.5002 1.93654 24.5 1.98442C24.5 1.98582 24.5 1.98719 24.5 1.98855C24.5 1.98991 24.5 1.99129 24.5 1.99268C24.5002 2.04056 24.5004 2.10825 24.3206 2.23068L14.0067 9.25358C13.8814 9.33888 13.7496 9.39714 13.6063 9.4317C13.4287 9.47455 13.2272 9.4991 12.9983 9.5C12.7862 9.49986 12.585 9.47284 12.3922 9.42047C12.1893 9.36535 12.0663 9.30369 11.9964 9.25569Z" fill="#797979" stroke="#797979" stroke-width="2"/>
</svg>
