<svg width="26" height="10" viewBox="0 0 26 10" fill="none" xmlns="http://www.w3.org/2000/svg">
<path d="M14.0036 1.24431L14.0067 1.24642L24.3206 8.26932C24.5004 8.39176 24.5002 8.45945 24.5 8.50732L24.5 8.51145L24.5 8.51558C24.5002 8.56345 24.5004 8.63114 24.3206 8.75358C24.1161 8.89282 23.8039 9 23.3139 9C22.8239 9 22.5117 8.89282 22.3072 8.75358L13.5628 2.79938L13 2.41614L12.4372 2.79938L3.69278 8.75358C3.48829 8.89282 3.17613 9 2.6861 9C2.19607 9 1.88391 8.89282 1.67942 8.75358C1.49961 8.63115 1.49983 8.56346 1.49999 8.51558C1.5 8.51418 1.5 8.51281 1.5 8.51145C1.5 8.51009 1.5 8.50871 1.49999 8.50732C1.49983 8.45944 1.49961 8.39175 1.67942 8.26932L11.9933 1.24642C12.1186 1.16112 12.2504 1.10286 12.3937 1.0683C12.5713 1.02545 12.7728 1.0009 13.0017 1C13.2138 1.00014 13.415 1.02716 13.6078 1.07953C13.8107 1.13465 13.9337 1.19631 14.0036 1.24431Z" fill="#EAEAEA" stroke="#EAEAEA" stroke-width="2"/>
</svg>
